<svg version="1.1" id="Layer_1" xmlns="http://www.w3.org/2000/svg" xmlns:xlink="http://www.w3.org/1999/xlink" x="0px" y="0px"
	 width="100%" viewBox="0 0 1502 1972" enable-background="new 0 0 1502 1972" xml:space="preserve">
<path fill="#000000" opacity="1.000000" stroke="none" 
	d="
M1503.000000,506.000000 
	C1503.000000,995.333191 1503.000000,1484.166382 1503.000000,1972.999634 
	C1002.333618,1972.999756 501.667267,1972.999756 1.000664,1972.999878 
	C1.000443,1315.667114 1.000443,658.334290 1.000221,1.001105 
	C501.666016,1.000736 1002.332031,1.000736 1502.999023,1.000368 
	C1503.000000,169.166672 1503.000000,337.333344 1503.000000,506.000000 
M1491.721069,1099.843628 
	C1491.483765,1099.900024 1491.246338,1099.956421 1490.392456,1100.280640 
	C1481.718994,1112.654419 1470.209961,1121.857056 1457.554321,1129.822388 
	C1409.502441,1160.066284 1361.501465,1190.391602 1313.390869,1220.541870 
	C1309.610718,1222.910767 1308.046143,1225.358276 1308.052368,1229.986206 
	C1308.201782,1340.968750 1308.168579,1451.951294 1308.168701,1562.933960 
	C1308.168823,1669.750610 1308.243530,1776.567383 1308.104980,1883.383789 
	C1308.078247,1903.964600 1314.837402,1921.667969 1328.739258,1936.625977 
	C1341.193359,1950.026245 1356.804688,1958.108887 1374.877319,1959.701782 
	C1389.098389,1960.955200 1403.514771,1960.062012 1417.843872,1960.001465 
	C1433.770752,1959.934204 1448.228027,1955.059814 1460.921509,1945.569092 
	C1482.380005,1929.524536 1491.669922,1907.651978 1491.659790,1881.113281 
	C1491.572144,1650.815918 1491.610962,1420.518555 1491.607300,1190.221191 
	C1491.606812,1160.226074 1491.579224,1130.230957 1491.721069,1099.843628 
M1299.909912,1781.499268 
	C1299.185059,1781.620850 1298.460327,1781.742310 1297.096558,1782.085938 
	C1284.913330,1790.664673 1271.254395,1793.676392 1256.510986,1793.672485 
	C974.529785,1793.597900 692.548645,1793.604126 410.567535,1793.754883 
	C406.681122,1793.756958 402.277893,1794.994751 398.987793,1797.050903 
	C350.826904,1827.147339 302.816711,1857.484985 254.766434,1887.758423 
	C216.641083,1911.778564 178.510010,1935.789429 140.644577,1959.638916 
	C541.511536,1959.638916 942.834290,1959.638916 1344.861572,1959.638916 
	C1312.671509,1940.356079 1298.464722,1912.775513 1299.701782,1876.011719 
	C1300.754761,1844.719727 1299.836304,1813.361450 1299.909912,1781.499268 
M394.692932,938.715881 
	C395.803009,937.985718 396.901062,937.236450 398.024933,936.528198 
	C702.991455,744.344177 1007.959595,552.162720 1312.928467,359.982422 
	C1358.990601,330.955688 1404.832275,301.570587 1451.192505,273.027893 
	C1487.675415,250.566422 1496.893188,202.365875 1473.848999,168.473587 
	C1469.074341,161.451416 1464.680298,154.166306 1459.799194,147.221329 
	C1444.984619,126.142975 1424.094727,116.093712 1398.826782,115.116844 
	C1382.522095,114.486496 1367.736694,119.724686 1353.887085,128.455719 
	C922.189453,400.603394 490.456665,672.695251 58.614964,944.614258 
	C44.557705,953.465759 34.570580,965.398132 26.285227,979.233826 
	C20.338293,989.164490 16.634249,1000.110596 15.265560,1011.439941 
	C14.094498,1021.133545 15.021580,1031.074341 14.918314,1040.904785 
	C14.791348,1052.991211 17.812466,1064.338623 23.842119,1074.662598 
	C39.290138,1101.112427 62.475304,1114.021484 93.201477,1114.009766 
	C306.026184,1113.928467 518.850891,1113.967407 731.675598,1113.962402 
	C733.173645,1113.962402 734.671631,1113.890747 737.074402,1114.008057 
	C870.968262,1114.008057 1004.862061,1114.008057 1140.063965,1114.008057 
	C1137.604858,1115.687622 1136.310425,1116.634277 1134.956909,1117.487183 
	C911.937744,1258.031128 688.914124,1398.567871 465.891327,1539.106079 
	C328.245453,1625.843872 190.606903,1712.593140 52.943626,1799.303345 
	C43.073570,1805.520386 34.399452,1812.984985 28.248226,1822.945923 
	C14.349068,1845.453491 11.040956,1869.250488 23.329840,1893.191772 
	C30.352791,1906.874268 39.142376,1919.885742 48.679386,1931.983032 
	C61.034626,1947.655151 78.564445,1955.715698 98.126801,1957.776978 
	C116.277191,1959.689331 133.124695,1954.534180 148.683090,1944.726807 
	C583.696228,1670.506104 1018.750916,1396.351440 1453.771362,1122.142456 
	C1458.830933,1118.953247 1463.718140,1115.425537 1468.367676,1111.662842 
	C1484.793701,1098.369995 1493.939331,1081.402588 1494.070557,1059.929199 
	C1494.162231,1044.934326 1494.702515,1029.939697 1494.625366,1014.947144 
	C1494.554688,1001.225281 1491.167480,988.250061 1483.697876,976.610168 
	C1468.019043,952.178284 1445.076904,940.982971 1416.540894,940.973022 
	C1195.712036,940.896240 974.883118,940.930786 754.054199,940.924805 
	C751.722900,940.924744 749.391663,940.844849 746.299988,940.463318 
	C736.850708,940.545776 727.401428,940.628174 717.469421,940.891602 
	C717.309692,940.954834 717.149902,941.018066 716.061218,940.957397 
	C611.210449,940.948120 506.359711,940.939758 401.508972,940.923767 
	C399.347961,940.923462 397.186920,940.834839 394.603943,939.965820 
	C394.461426,939.692932 394.318909,939.420105 394.692932,938.715881 
M684.500000,280.833649 
	C819.824524,280.833649 955.148987,280.855072 1090.473389,280.711487 
	C1093.891235,280.707855 1097.767700,279.621246 1100.656982,277.807800 
	C1185.652344,224.462463 1270.550537,170.961975 1355.451172,117.465904 
	C1356.434570,116.846275 1357.250977,115.961449 1358.815918,114.629646 
	C958.786865,114.629646 559.880310,114.629646 160.727997,114.629646 
	C161.089630,115.487930 161.132950,115.887482 161.353928,116.061707 
	C162.134613,116.677223 162.958694,117.242867 163.797134,117.779251 
	C190.661011,134.965561 203.748215,159.705246 203.860626,191.391632 
	C203.980057,225.055679 203.887573,258.720490 203.887619,292.384949 
	C203.887619,294.133148 203.887604,295.881378 203.887604,298.034241 
	C204.986740,297.587219 205.498428,297.517639 205.812805,297.231323 
	C219.506439,284.760895 235.821564,280.701721 254.028214,280.726318 
	C397.185242,280.919800 540.342712,280.833679 684.500000,280.833649 
M30.522558,955.031433 
	C35.836411,950.772461 40.803642,945.967285 46.518703,942.340515 
	C94.116692,912.135193 141.809570,882.078369 189.618866,852.208862 
	C193.986679,849.479980 195.498489,846.656494 195.495407,841.574707 
	C195.365097,626.285339 195.373444,410.995911 195.413834,195.706482 
	C195.415787,185.258545 194.328934,175.145248 191.203323,165.029587 
	C182.132980,135.674484 155.277115,117.483490 130.061737,115.046921 
	C118.195892,113.900330 106.169197,114.039932 94.223236,114.196335 
	C79.129799,114.393951 65.082260,118.654617 52.845028,127.639023 
	C31.672794,143.183365 20.801558,163.926437 20.821547,190.558762 
	C20.950003,361.690430 20.887135,532.822266 20.887148,703.954041 
	C20.887154,789.603210 20.887272,875.252441 20.887339,960.901611 
	C20.887341,962.702942 20.887339,964.504211 20.887339,967.237000 
	C24.504879,962.619995 27.273993,959.085876 30.522558,955.031433 
M185.773911,1632.500000 
	C185.773911,1462.726318 185.773911,1292.952759 185.773911,1122.562378 
	C183.151810,1122.562378 181.193344,1122.562866 179.234894,1122.562378 
	C150.402756,1122.554688 121.570030,1122.430054 92.738686,1122.577271 
	C70.550491,1122.690674 50.879974,1115.987427 34.247204,1101.265381 
	C28.855499,1096.493164 24.313635,1090.760864 19.401237,1085.487183 
	C19.401237,1330.232178 19.401237,1575.021606 19.401237,1819.213867 
	C25.291655,1812.947021 30.802994,1805.964478 37.452198,1800.323242 
	C44.136471,1794.652222 51.840256,1790.137573 59.292862,1785.425293 
	C99.975403,1759.702271 140.692520,1734.033447 181.489151,1708.491943 
	C184.743683,1706.454468 185.893707,1704.293335 185.862915,1700.496460 
	C185.681702,1678.165527 185.773834,1655.832397 185.773911,1632.500000 
M1490.000000,921.500000 
	C1490.000000,694.996948 1490.000000,468.493896 1490.000000,241.144302 
	C1489.070679,242.238281 1488.683228,242.531921 1488.510742,242.920898 
	C1480.802490,260.303680 1467.912231,272.718567 1451.928101,282.663055 
	C1410.393799,308.503540 1369.121948,334.765717 1327.687012,360.766418 
	C1324.747803,362.610870 1323.213623,364.466980 1323.215576,368.218781 
	C1323.311646,554.504700 1323.316040,740.790588 1323.199951,927.076477 
	C1323.197144,931.657898 1324.728271,932.592163 1328.936890,932.568787 
	C1357.428833,932.410767 1385.922241,932.406677 1414.414307,932.555420 
	C1420.358521,932.586487 1426.320679,933.276917 1432.236206,933.984314 
	C1455.020020,936.709290 1472.634399,948.313354 1486.650269,965.993774 
	C1487.510986,967.079590 1488.419678,968.127380 1490.000000,970.027039 
	C1490.000000,953.411499 1490.000000,937.955750 1490.000000,921.500000 
M875.470154,9.297078 
	C798.008362,9.297405 720.545959,9.486782 643.085083,9.219976 
	C603.095886,9.082238 571.815918,38.672966 568.661255,75.036987 
	C567.792480,85.051521 568.529175,95.205322 568.529175,105.424652 
	C697.490173,105.424652 826.133179,105.424652 955.124817,105.424652 
	C955.124817,96.869743 955.306213,88.714851 955.085266,80.570877 
	C954.683472,65.760506 950.490906,52.099781 941.683350,40.073460 
	C925.537415,18.026859 903.323975,8.695756 875.470154,9.297078 
M1359.567017,114.933037 
	C1359.816284,114.744026 1360.065430,114.555023 1360.314697,114.366020 
	C1359.945312,114.422821 1359.575806,114.479622 1359.567017,114.933037 
M158.971756,114.883240 
	C159.221573,114.726578 159.471405,114.569916 159.721222,114.413254 
	C159.352539,114.444084 158.983841,114.474915 158.971756,114.883240 
M136.513992,1960.523315 
	C136.513992,1960.523315 136.498657,1960.485962 136.513992,1960.523315 
z"/>
<path fill="#2FDA77" opacity="1.000000" stroke="none" 
	d="
M716.990112,941.081299 
	C717.149902,941.018066 717.309692,940.954834 718.178345,940.887207 
	C728.278320,940.856018 737.669312,940.829163 747.060364,940.802246 
	C749.391663,940.844849 751.722900,940.924744 754.054199,940.924805 
	C974.883118,940.930786 1195.712036,940.896240 1416.540894,940.973022 
	C1445.076904,940.982971 1468.019043,952.178284 1483.697876,976.610168 
	C1491.167480,988.250061 1494.554688,1001.225281 1494.625366,1014.947144 
	C1494.702515,1029.939697 1494.162231,1044.934326 1494.070557,1059.929199 
	C1493.939331,1081.402588 1484.793701,1098.369995 1468.367676,1111.662842 
	C1463.718140,1115.425537 1458.830933,1118.953247 1453.771362,1122.142456 
	C1018.750916,1396.351440 583.696228,1670.506104 148.683090,1944.726807 
	C133.124695,1954.534180 116.277191,1959.689331 98.126801,1957.776978 
	C78.564445,1955.715698 61.034626,1947.655151 48.679386,1931.983032 
	C39.142376,1919.885742 30.352791,1906.874268 23.329840,1893.191772 
	C11.040956,1869.250488 14.349068,1845.453491 28.248226,1822.945923 
	C34.399452,1812.984985 43.073570,1805.520386 52.943626,1799.303345 
	C190.606903,1712.593140 328.245453,1625.843872 465.891327,1539.106079 
	C688.914124,1398.567871 911.937744,1258.031128 1134.956909,1117.487183 
	C1136.310425,1116.634277 1137.604858,1115.687622 1140.063965,1114.008057 
	C1004.862061,1114.008057 870.968262,1114.008057 736.831543,1113.682617 
	C737.465942,1112.881104 738.558411,1112.595947 739.181519,1111.894043 
	C741.271912,1109.539551 744.600891,1107.103394 744.721863,1104.567993 
	C744.813171,1102.656128 741.033203,1099.869141 738.425598,1098.640869 
	C728.344238,1093.892456 717.503479,1092.314453 706.430420,1091.892578 
	C687.542053,1091.172729 669.025085,1093.308350 650.594604,1097.562378 
	C643.214294,1099.265747 635.262390,1098.919678 628.163818,1095.116577 
	C623.855042,1092.808228 620.479126,1089.367310 621.113281,1084.093262 
	C621.736023,1078.914917 624.886230,1074.869263 630.133728,1074.061401 
	C637.477600,1072.930908 645.013367,1071.871460 652.378784,1072.299561 
	C668.065063,1073.211426 683.543945,1077.469849 699.386719,1075.831909 
	C705.233948,1075.227295 711.171936,1073.864380 716.653137,1071.763550 
	C723.768188,1069.036499 725.423767,1062.378662 720.667114,1056.371948 
	C718.751038,1053.952271 715.558533,1051.802856 712.582458,1051.120972 
	C706.826782,1049.802124 700.802429,1049.690918 694.907593,1048.936646 
	C683.162476,1047.433350 677.039612,1041.569092 681.566345,1031.466797 
	C683.012390,1028.239746 687.302124,1025.556274 690.887695,1024.182861 
	C696.867188,1021.892700 703.476624,1021.288757 709.548096,1019.186951 
	C717.197449,1016.538818 718.196899,1007.988892 711.647583,1003.169556 
	C709.816101,1001.821960 707.510071,1000.304688 705.402954,1000.276611 
	C690.542114,1000.078796 675.636353,999.617188 660.827820,1000.551880 
	C652.622070,1001.069763 644.955261,1000.685486 637.582886,997.300476 
	C629.671387,993.667969 625.596069,986.242188 627.247437,979.287109 
	C628.945740,972.134094 636.209839,966.747681 644.642578,967.073181 
	C652.725952,967.385193 660.831360,967.978455 668.844421,969.060608 
	C681.234436,970.734009 693.510742,973.296570 705.920776,974.754761 
	C712.642395,975.544495 719.621582,975.456848 726.334656,974.596130 
	C731.899841,973.882690 737.548767,971.691711 738.849121,964.944275 
	C740.147339,958.207764 734.602966,955.930542 730.518738,952.645142 
	C725.898315,948.928406 721.490417,944.947388 716.990112,941.081299 
z"/>
<path fill="#E46A69" opacity="1.000000" stroke="none" 
	d="
M716.525635,941.019348 
	C721.490417,944.947388 725.898315,948.928406 730.518738,952.645142 
	C734.602966,955.930542 740.147339,958.207764 738.849121,964.944275 
	C737.548767,971.691711 731.899841,973.882690 726.334656,974.596130 
	C719.621582,975.456848 712.642395,975.544495 705.920776,974.754761 
	C693.510742,973.296570 681.234436,970.734009 668.844421,969.060608 
	C660.831360,967.978455 652.725952,967.385193 644.642578,967.073181 
	C636.209839,966.747681 628.945740,972.134094 627.247437,979.287109 
	C625.596069,986.242188 629.671387,993.667969 637.582886,997.300476 
	C644.955261,1000.685486 652.622070,1001.069763 660.827820,1000.551880 
	C675.636353,999.617188 690.542114,1000.078796 705.402954,1000.276611 
	C707.510071,1000.304688 709.816101,1001.821960 711.647583,1003.169556 
	C718.196899,1007.988892 717.197449,1016.538818 709.548096,1019.186951 
	C703.476624,1021.288757 696.867188,1021.892700 690.887695,1024.182861 
	C687.302124,1025.556274 683.012390,1028.239746 681.566345,1031.466797 
	C677.039612,1041.569092 683.162476,1047.433350 694.907593,1048.936646 
	C700.802429,1049.690918 706.826782,1049.802124 712.582458,1051.120972 
	C715.558533,1051.802856 718.751038,1053.952271 720.667114,1056.371948 
	C725.423767,1062.378662 723.768188,1069.036499 716.653137,1071.763550 
	C711.171936,1073.864380 705.233948,1075.227295 699.386719,1075.831909 
	C683.543945,1077.469849 668.065063,1073.211426 652.378784,1072.299561 
	C645.013367,1071.871460 637.477600,1072.930908 630.133728,1074.061401 
	C624.886230,1074.869263 621.736023,1078.914917 621.113281,1084.093262 
	C620.479126,1089.367310 623.855042,1092.808228 628.163818,1095.116577 
	C635.262390,1098.919678 643.214294,1099.265747 650.594604,1097.562378 
	C669.025085,1093.308350 687.542053,1091.172729 706.430420,1091.892578 
	C717.503479,1092.314453 728.344238,1093.892456 738.425598,1098.640869 
	C741.033203,1099.869141 744.813171,1102.656128 744.721863,1104.567993 
	C744.600891,1107.103394 741.271912,1109.539551 739.181519,1111.894043 
	C738.558411,1112.595947 737.465942,1112.881104 736.379150,1113.604980 
	C734.671631,1113.890747 733.173645,1113.962402 731.675598,1113.962402 
	C518.850891,1113.967407 306.026184,1113.928467 93.201477,1114.009766 
	C62.475304,1114.021484 39.290138,1101.112427 23.842119,1074.662598 
	C17.812466,1064.338623 14.791348,1052.991211 14.918314,1040.904785 
	C15.021580,1031.074341 14.094498,1021.133545 15.265560,1011.439941 
	C16.634249,1000.110596 20.338293,989.164490 26.285227,979.233826 
	C34.570580,965.398132 44.557705,953.465759 58.614964,944.614258 
	C490.456665,672.695251 922.189453,400.603394 1353.887085,128.455719 
	C1367.736694,119.724686 1382.522095,114.486496 1398.826782,115.116844 
	C1424.094727,116.093712 1444.984619,126.142975 1459.799194,147.221329 
	C1464.680298,154.166306 1469.074341,161.451416 1473.848999,168.473587 
	C1496.893188,202.365875 1487.675415,250.566422 1451.192505,273.027893 
	C1404.832275,301.570587 1358.990601,330.955688 1312.928467,359.982422 
	C1007.959595,552.162720 702.991455,744.344177 398.024933,936.528198 
	C396.901062,937.236450 395.803009,937.985718 394.129395,938.999756 
	C393.181183,939.708496 392.796509,940.133362 392.018524,940.992615 
	C393.433868,940.896057 394.229889,940.841736 395.025909,940.787415 
	C397.186920,940.834839 399.347961,940.923462 401.508972,940.923767 
	C506.359711,940.939758 611.210449,940.948120 716.525635,941.019348 
z"/>
<path fill="#19B090" opacity="1.000000" stroke="none" 
	d="
M684.000000,280.833649 
	C540.342712,280.833679 397.185242,280.919800 254.028214,280.726318 
	C235.821564,280.701721 219.506439,284.760895 205.812805,297.231323 
	C205.498428,297.517639 204.986740,297.587219 203.887604,298.034241 
	C203.887604,295.881378 203.887619,294.133148 203.887619,292.384949 
	C203.887573,258.720490 203.980057,225.055679 203.860626,191.391632 
	C203.748215,159.705246 190.661011,134.965561 163.797134,117.779251 
	C162.958694,117.242867 162.134613,116.677223 161.353928,116.061707 
	C161.132950,115.887482 161.089630,115.487930 160.727997,114.629646 
	C559.880310,114.629646 958.786865,114.629646 1358.815918,114.629646 
	C1357.250977,115.961449 1356.434570,116.846275 1355.451172,117.465904 
	C1270.550537,170.961975 1185.652344,224.462463 1100.656982,277.807800 
	C1097.767700,279.621246 1093.891235,280.707855 1090.473389,280.711487 
	C955.148987,280.855072 819.824524,280.833649 684.000000,280.833649 
z"/>
<path fill="#19B090" opacity="1.000000" stroke="none" 
	d="
M1299.790039,1782.032471 
	C1299.836304,1813.361450 1300.754761,1844.719727 1299.701782,1876.011719 
	C1298.464722,1912.775513 1312.671509,1940.356079 1344.861572,1959.638916 
	C942.834290,1959.638916 541.511536,1959.638916 140.644577,1959.638916 
	C178.510010,1935.789429 216.641083,1911.778564 254.766434,1887.758423 
	C302.816711,1857.484985 350.826904,1827.147339 398.987793,1797.050903 
	C402.277893,1794.994751 406.681122,1793.756958 410.567535,1793.754883 
	C692.548645,1793.604126 974.529785,1793.597900 1256.510986,1793.672485 
	C1271.254395,1793.676392 1284.913330,1790.664673 1297.757812,1782.011353 
	C1298.875977,1781.968628 1299.333008,1782.000610 1299.790039,1782.032471 
z"/>
<path fill="#2FDA77" opacity="1.000000" stroke="none" 
	d="
M1491.564209,1100.235840 
	C1491.579224,1130.230957 1491.606812,1160.226074 1491.607300,1190.221191 
	C1491.610962,1420.518555 1491.572144,1650.815918 1491.659790,1881.113281 
	C1491.669922,1907.651978 1482.380005,1929.524536 1460.921509,1945.569092 
	C1448.228027,1955.059814 1433.770752,1959.934204 1417.843872,1960.001465 
	C1403.514771,1960.062012 1389.098389,1960.955200 1374.877319,1959.701782 
	C1356.804688,1958.108887 1341.193359,1950.026245 1328.739258,1936.625977 
	C1314.837402,1921.667969 1308.078247,1903.964600 1308.104980,1883.383789 
	C1308.243530,1776.567383 1308.168823,1669.750610 1308.168701,1562.933960 
	C1308.168579,1451.951294 1308.201782,1340.968750 1308.052368,1229.986206 
	C1308.046143,1225.358276 1309.610718,1222.910767 1313.390869,1220.541870 
	C1361.501465,1190.391602 1409.502441,1160.066284 1457.554321,1129.822388 
	C1470.209961,1121.857056 1481.718994,1112.654419 1490.808838,1100.279053 
	C1491.225098,1100.277466 1491.564209,1100.235840 1491.564209,1100.235840 
z"/>
<path fill="#E46A69" opacity="1.000000" stroke="none" 
	d="
M30.282833,955.291565 
	C27.273993,959.085876 24.504879,962.619995 20.887339,967.237000 
	C20.887339,964.504211 20.887341,962.702942 20.887339,960.901611 
	C20.887272,875.252441 20.887154,789.603210 20.887148,703.954041 
	C20.887135,532.822266 20.950003,361.690430 20.821547,190.558762 
	C20.801558,163.926437 31.672794,143.183365 52.845028,127.639023 
	C65.082260,118.654617 79.129799,114.393951 94.223236,114.196335 
	C106.169197,114.039932 118.195892,113.900330 130.061737,115.046921 
	C155.277115,117.483490 182.132980,135.674484 191.203323,165.029587 
	C194.328934,175.145248 195.415787,185.258545 195.413834,195.706482 
	C195.373444,410.995911 195.365097,626.285339 195.495407,841.574707 
	C195.498489,846.656494 193.986679,849.479980 189.618866,852.208862 
	C141.809570,882.078369 94.116692,912.135193 46.518703,942.340515 
	C40.803642,945.967285 35.836411,950.772461 30.282833,955.291565 
z"/>
<path fill="#19B090" opacity="1.000000" stroke="none" 
	d="
M185.773895,1633.000000 
	C185.773834,1655.832397 185.681702,1678.165527 185.862915,1700.496460 
	C185.893707,1704.293335 184.743683,1706.454468 181.489151,1708.491943 
	C140.692520,1734.033447 99.975403,1759.702271 59.292862,1785.425293 
	C51.840256,1790.137573 44.136471,1794.652222 37.452198,1800.323242 
	C30.802994,1805.964478 25.291655,1812.947021 19.401237,1819.213867 
	C19.401237,1575.021606 19.401237,1330.232178 19.401237,1085.487183 
	C24.313635,1090.760864 28.855499,1096.493164 34.247204,1101.265381 
	C50.879974,1115.987427 70.550491,1122.690674 92.738686,1122.577271 
	C121.570030,1122.430054 150.402756,1122.554688 179.234894,1122.562378 
	C181.193344,1122.562866 183.151810,1122.562378 185.773911,1122.562378 
	C185.773911,1292.952759 185.773911,1462.726318 185.773895,1633.000000 
z"/>
<path fill="#19B090" opacity="1.000000" stroke="none" 
	d="
M1490.000000,922.000000 
	C1490.000000,937.955750 1490.000000,953.411499 1490.000000,970.027039 
	C1488.419678,968.127380 1487.510986,967.079590 1486.650269,965.993774 
	C1472.634399,948.313354 1455.020020,936.709290 1432.236206,933.984314 
	C1426.320679,933.276917 1420.358521,932.586487 1414.414307,932.555420 
	C1385.922241,932.406677 1357.428833,932.410767 1328.936890,932.568787 
	C1324.728271,932.592163 1323.197144,931.657898 1323.199951,927.076477 
	C1323.316040,740.790588 1323.311646,554.504700 1323.215576,368.218781 
	C1323.213623,364.466980 1324.747803,362.610870 1327.687012,360.766418 
	C1369.121948,334.765717 1410.393799,308.503540 1451.928101,282.663055 
	C1467.912231,272.718567 1480.802490,260.303680 1488.510742,242.920898 
	C1488.683228,242.531921 1489.070679,242.238281 1490.000000,241.144302 
	C1490.000000,468.493896 1490.000000,694.996948 1490.000000,922.000000 
z"/>
<path fill="#19B090" opacity="1.000000" stroke="none" 
	d="
M875.963745,9.297117 
	C903.323975,8.695756 925.537415,18.026859 941.683350,40.073460 
	C950.490906,52.099781 954.683472,65.760506 955.085266,80.570877 
	C955.306213,88.714851 955.124817,96.869743 955.124817,105.424652 
	C826.133179,105.424652 697.490173,105.424652 568.529175,105.424652 
	C568.529175,95.205322 567.792480,85.051521 568.661255,75.036987 
	C571.815918,38.672966 603.095886,9.082238 643.085083,9.219976 
	C720.545959,9.486782 798.008362,9.297405 875.963745,9.297117 
z"/>
<path fill="#1C0E0D" opacity="1.000000" stroke="none" 
	d="
M746.680176,940.632812 
	C737.669312,940.829163 728.278320,940.856018 718.419678,940.796753 
	C727.401428,940.628174 736.850708,940.545776 746.680176,940.632812 
z"/>
<path fill="#1C0E0D" opacity="1.000000" stroke="none" 
	d="
M394.814941,940.376587 
	C394.229889,940.841736 393.433868,940.896057 392.018524,940.992615 
	C392.796509,940.133362 393.181183,939.708496 393.871094,939.215454 
	C394.318909,939.420105 394.461426,939.692932 394.814941,940.376587 
z"/>
<path fill="#169A7E" opacity="1.000000" stroke="none" 
	d="
M1299.849976,1781.765869 
	C1299.333008,1782.000610 1298.875977,1781.968628 1298.077148,1781.900391 
	C1298.460327,1781.742310 1299.185059,1781.620850 1299.849976,1781.765869 
z"/>
<path fill="#169A7E" opacity="1.000000" stroke="none" 
	d="
M1359.386719,114.734726 
	C1359.575806,114.479622 1359.945312,114.422821 1360.314697,114.366013 
	C1360.065430,114.555023 1359.816284,114.744026 1359.386719,114.734726 
z"/>
<path fill="#169A7E" opacity="1.000000" stroke="none" 
	d="
M158.793457,114.694489 
	C158.983841,114.474915 159.352539,114.444084 159.721222,114.413254 
	C159.471405,114.569916 159.221573,114.726578 158.793457,114.694489 
z"/>
<path fill="#1A7A43" opacity="1.000000" stroke="none" 
	d="
M1491.642578,1100.039795 
	C1491.564209,1100.235840 1491.225098,1100.277466 1491.117065,1100.145142 
	C1491.246338,1099.956421 1491.483765,1099.900024 1491.642578,1100.039795 
z"/>
<path fill="#05201B" opacity="1.000000" stroke="none" 
	d="
M136.506317,1960.504639 
	C136.498657,1960.485962 136.513992,1960.523315 136.506317,1960.504639 
z"/>
</svg>